<mxfile host="app.diagrams.net" agent="Mozilla/5.0 (Windows NT 10.0; Win64; x64) AppleWebKit/537.36 (KHTML, like Gecko) Chrome/135.0.0.0 Safari/537.36 OPR/120.0.0.0" version="28.1.2">
  <diagram name="Page-1" id="_fgNbCBozK9R5fLy6JvO">
    <mxGraphModel dx="3575" dy="2255" grid="0" gridSize="10" guides="1" tooltips="1" connect="1" arrows="1" fold="1" page="0" pageScale="1" pageWidth="850" pageHeight="1100" background="light-dark(#0D1117,#0D1117)" math="0" shadow="0">
      <root>
        <mxCell id="0" />
        <mxCell id="1" parent="0" />
        <mxCell id="urWOwsYpe-8lvMp6Ferf-57" value="&lt;span style=&quot;box-sizing: border-box; font-weight: 600; font-family: -apple-system, BlinkMacSystemFont, &amp;quot;Segoe UI&amp;quot;, &amp;quot;Noto Sans&amp;quot;, Helvetica, Arial, sans-serif, &amp;quot;Apple Color Emoji&amp;quot;, &amp;quot;Segoe UI Emoji&amp;quot;; font-size: 16px; text-align: left; background-color: rgb(13, 17, 23);&quot;&gt;STM32G473CET6&amp;nbsp;&lt;/span&gt;" style="rounded=0;whiteSpace=wrap;html=1;fontSize=10;align=center;glass=0;shadow=0;strokeWidth=2;perimeterSpacing=0;strokeColor=#F8312F;fillColor=none;fontColor=#F8312F;verticalAlign=middle;spacingLeft=0;spacingTop=0;fontFamily=Helvetica;" vertex="1" parent="1">
          <mxGeometry width="200" height="200" as="geometry" />
        </mxCell>
        <mxCell id="urWOwsYpe-8lvMp6Ferf-87" style="edgeStyle=orthogonalEdgeStyle;rounded=0;orthogonalLoop=1;jettySize=auto;html=1;entryX=1;entryY=0.5;entryDx=0;entryDy=0;strokeColor=#FFFFFF;startArrow=classic;startFill=1;" edge="1" parent="1" source="urWOwsYpe-8lvMp6Ferf-58" target="urWOwsYpe-8lvMp6Ferf-57">
          <mxGeometry relative="1" as="geometry" />
        </mxCell>
        <mxCell id="urWOwsYpe-8lvMp6Ferf-88" style="edgeStyle=orthogonalEdgeStyle;rounded=0;orthogonalLoop=1;jettySize=auto;html=1;exitX=0;exitY=0.75;exitDx=0;exitDy=0;entryX=1;entryY=0.75;entryDx=0;entryDy=0;strokeColor=#FFFFFF;startArrow=classic;startFill=1;" edge="1" parent="1" source="urWOwsYpe-8lvMp6Ferf-58" target="urWOwsYpe-8lvMp6Ferf-57">
          <mxGeometry relative="1" as="geometry" />
        </mxCell>
        <mxCell id="urWOwsYpe-8lvMp6Ferf-89" style="edgeStyle=orthogonalEdgeStyle;rounded=0;orthogonalLoop=1;jettySize=auto;html=1;exitX=0;exitY=0.25;exitDx=0;exitDy=0;entryX=1;entryY=0.25;entryDx=0;entryDy=0;strokeColor=#FFFFFF;startArrow=classic;startFill=1;" edge="1" parent="1" source="urWOwsYpe-8lvMp6Ferf-58" target="urWOwsYpe-8lvMp6Ferf-57">
          <mxGeometry relative="1" as="geometry" />
        </mxCell>
        <mxCell id="urWOwsYpe-8lvMp6Ferf-94" style="edgeStyle=orthogonalEdgeStyle;rounded=0;orthogonalLoop=1;jettySize=auto;html=1;exitX=0.25;exitY=0;exitDx=0;exitDy=0;entryX=0;entryY=0.5;entryDx=0;entryDy=0;strokeColor=#FFFFFF;" edge="1" parent="1" source="urWOwsYpe-8lvMp6Ferf-58" target="urWOwsYpe-8lvMp6Ferf-67">
          <mxGeometry relative="1" as="geometry">
            <Array as="points">
              <mxPoint x="335" />
              <mxPoint x="335" y="-80" />
            </Array>
          </mxGeometry>
        </mxCell>
        <mxCell id="urWOwsYpe-8lvMp6Ferf-95" style="edgeStyle=orthogonalEdgeStyle;rounded=0;orthogonalLoop=1;jettySize=auto;html=1;exitX=0.25;exitY=0;exitDx=0;exitDy=0;entryX=0;entryY=0.5;entryDx=0;entryDy=0;strokeColor=#FFFFFF;" edge="1" parent="1" source="urWOwsYpe-8lvMp6Ferf-58" target="urWOwsYpe-8lvMp6Ferf-68">
          <mxGeometry relative="1" as="geometry">
            <Array as="points">
              <mxPoint x="330" />
              <mxPoint x="330" y="-161" />
            </Array>
          </mxGeometry>
        </mxCell>
        <mxCell id="urWOwsYpe-8lvMp6Ferf-58" value="&lt;span style=&quot;box-sizing: border-box; font-weight: 600; font-family: -apple-system, BlinkMacSystemFont, &amp;quot;Segoe UI&amp;quot;, &amp;quot;Noto Sans&amp;quot;, Helvetica, Arial, sans-serif, &amp;quot;Apple Color Emoji&amp;quot;, &amp;quot;Segoe UI Emoji&amp;quot;; font-size: 16px; text-align: left; background-color: rgb(13, 17, 23);&quot;&gt;Infineon MCU&lt;/span&gt;" style="rounded=0;whiteSpace=wrap;html=1;fontSize=10;align=center;glass=0;shadow=0;strokeWidth=2;perimeterSpacing=0;strokeColor=#00A6ED;fillColor=none;fontColor=#00A6ED;verticalAlign=middle;spacingLeft=0;spacingTop=0;fontFamily=Helvetica;" vertex="1" parent="1">
          <mxGeometry x="300" width="200" height="200" as="geometry" />
        </mxCell>
        <mxCell id="urWOwsYpe-8lvMp6Ferf-59" value="&lt;span style=&quot;box-sizing: border-box; font-weight: 600; color: rgb(240, 246, 252); font-family: -apple-system, BlinkMacSystemFont, &amp;quot;Segoe UI&amp;quot;, &amp;quot;Noto Sans&amp;quot;, Helvetica, Arial, sans-serif, &amp;quot;Apple Color Emoji&amp;quot;, &amp;quot;Segoe UI Emoji&amp;quot;; font-size: 16px; text-align: left; background-color: rgb(13, 17, 23);&quot;&gt;ATmega328p&lt;/span&gt;" style="rounded=0;whiteSpace=wrap;html=1;fontSize=10;align=center;glass=0;shadow=0;strokeWidth=2;perimeterSpacing=0;strokeColor=#4C566A;fillColor=none;fontColor=#C9D1D9;verticalAlign=middle;spacingLeft=0;spacingTop=0;fontFamily=Helvetica;" vertex="1" parent="1">
          <mxGeometry x="25" y="300" width="150" height="150" as="geometry" />
        </mxCell>
        <mxCell id="urWOwsYpe-8lvMp6Ferf-60" value="&lt;span style=&quot;box-sizing: border-box; font-weight: 600; color: rgb(240, 246, 252); font-family: -apple-system, BlinkMacSystemFont, &amp;quot;Segoe UI&amp;quot;, &amp;quot;Noto Sans&amp;quot;, Helvetica, Arial, sans-serif, &amp;quot;Apple Color Emoji&amp;quot;, &amp;quot;Segoe UI Emoji&amp;quot;; font-size: 16px; text-align: left; background-color: rgb(13, 17, 23);&quot;&gt;nRF24l01&lt;/span&gt;&lt;span style=&quot;color: rgb(240, 246, 252); font-family: -apple-system, BlinkMacSystemFont, &amp;quot;Segoe UI&amp;quot;, &amp;quot;Noto Sans&amp;quot;, Helvetica, Arial, sans-serif, &amp;quot;Apple Color Emoji&amp;quot;, &amp;quot;Segoe UI Emoji&amp;quot;; font-size: 16px; text-align: left; background-color: rgb(13, 17, 23);&quot;&gt;&amp;nbsp;&lt;/span&gt;" style="rounded=0;whiteSpace=wrap;html=1;fontSize=10;align=center;glass=0;shadow=0;strokeWidth=2;perimeterSpacing=0;strokeColor=#4C566A;fillColor=none;fontColor=#C9D1D9;verticalAlign=middle;spacingLeft=0;spacingTop=0;fontFamily=Helvetica;" vertex="1" parent="1">
          <mxGeometry x="-373" y="90" width="150" height="150" as="geometry" />
        </mxCell>
        <mxCell id="urWOwsYpe-8lvMp6Ferf-61" value="&lt;span style=&quot;box-sizing: border-box; font-weight: 600; color: rgb(240, 246, 252); font-family: -apple-system, BlinkMacSystemFont, &amp;quot;Segoe UI&amp;quot;, &amp;quot;Noto Sans&amp;quot;, Helvetica, Arial, sans-serif, &amp;quot;Apple Color Emoji&amp;quot;, &amp;quot;Segoe UI Emoji&amp;quot;; font-size: 16px; text-align: left; background-color: rgb(13, 17, 23);&quot;&gt;ADXL345&lt;/span&gt;&lt;span style=&quot;color: rgb(240, 246, 252); font-family: -apple-system, BlinkMacSystemFont, &amp;quot;Segoe UI&amp;quot;, &amp;quot;Noto Sans&amp;quot;, Helvetica, Arial, sans-serif, &amp;quot;Apple Color Emoji&amp;quot;, &amp;quot;Segoe UI Emoji&amp;quot;; font-size: 16px; text-align: left; background-color: rgb(13, 17, 23);&quot;&gt;&amp;nbsp;&lt;/span&gt;" style="rounded=0;whiteSpace=wrap;html=1;fontSize=10;align=center;glass=0;shadow=0;strokeWidth=2;perimeterSpacing=0;strokeColor=#4C566A;fillColor=none;fontColor=#C9D1D9;verticalAlign=middle;spacingLeft=0;spacingTop=0;fontFamily=Helvetica;" vertex="1" parent="1">
          <mxGeometry x="-373" y="-181" width="150" height="150" as="geometry" />
        </mxCell>
        <mxCell id="urWOwsYpe-8lvMp6Ferf-62" value="&lt;span style=&quot;box-sizing: border-box; font-weight: 600; color: rgb(240, 246, 252); font-family: -apple-system, BlinkMacSystemFont, &amp;quot;Segoe UI&amp;quot;, &amp;quot;Noto Sans&amp;quot;, Helvetica, Arial, sans-serif, &amp;quot;Apple Color Emoji&amp;quot;, &amp;quot;Segoe UI Emoji&amp;quot;; font-size: 16px; text-align: left; background-color: rgb(13, 17, 23);&quot;&gt;EEPROM&lt;/span&gt;&lt;span style=&quot;color: rgb(240, 246, 252); font-family: -apple-system, BlinkMacSystemFont, &amp;quot;Segoe UI&amp;quot;, &amp;quot;Noto Sans&amp;quot;, Helvetica, Arial, sans-serif, &amp;quot;Apple Color Emoji&amp;quot;, &amp;quot;Segoe UI Emoji&amp;quot;; font-size: 16px; text-align: left; background-color: rgb(13, 17, 23);&quot;&gt;&amp;nbsp;&lt;/span&gt;" style="rounded=0;whiteSpace=wrap;html=1;fontSize=10;align=center;glass=0;shadow=0;strokeWidth=2;perimeterSpacing=0;strokeColor=#4C566A;fillColor=none;fontColor=#C9D1D9;verticalAlign=middle;spacingLeft=0;spacingTop=0;fontFamily=Helvetica;" vertex="1" parent="1">
          <mxGeometry x="25" y="-300" width="150" height="150" as="geometry" />
        </mxCell>
        <mxCell id="urWOwsYpe-8lvMp6Ferf-63" value="&lt;div style=&quot;text-align: left;&quot;&gt;&lt;font face=&quot;-apple-system, BlinkMacSystemFont, Segoe UI, Noto Sans, Helvetica, Arial, sans-serif, Apple Color Emoji, Segoe UI Emoji&quot; color=&quot;#f0f6fc&quot;&gt;&lt;span style=&quot;font-size: 16px; background-color: rgb(13, 17, 23);&quot;&gt;&lt;b&gt;GPS&lt;/b&gt;&lt;/span&gt;&lt;/font&gt;&lt;/div&gt;" style="rounded=0;whiteSpace=wrap;html=1;fontSize=10;align=center;glass=0;shadow=0;strokeWidth=2;perimeterSpacing=0;strokeColor=#4C566A;fillColor=none;fontColor=#C9D1D9;verticalAlign=middle;spacingLeft=0;spacingTop=0;fontFamily=Helvetica;" vertex="1" parent="1">
          <mxGeometry x="-373" y="-416" width="150" height="150" as="geometry" />
        </mxCell>
        <mxCell id="urWOwsYpe-8lvMp6Ferf-64" value="&lt;div style=&quot;text-align: left;&quot;&gt;&lt;font face=&quot;-apple-system, BlinkMacSystemFont, Segoe UI, Noto Sans, Helvetica, Arial, sans-serif, Apple Color Emoji, Segoe UI Emoji&quot; color=&quot;#f0f6fc&quot;&gt;&lt;span style=&quot;font-size: 16px; background-color: rgb(13, 17, 23);&quot;&gt;&lt;b&gt;Motor driver 1&lt;/b&gt;&lt;/span&gt;&lt;/font&gt;&lt;/div&gt;" style="rounded=0;whiteSpace=wrap;html=1;fontSize=10;align=center;glass=0;shadow=0;strokeWidth=2;perimeterSpacing=0;strokeColor=#4C566A;fillColor=none;fontColor=#C9D1D9;verticalAlign=middle;spacingLeft=0;spacingTop=0;fontFamily=Helvetica;" vertex="1" parent="1">
          <mxGeometry x="350" y="260" width="150" height="40" as="geometry" />
        </mxCell>
        <mxCell id="urWOwsYpe-8lvMp6Ferf-65" value="&lt;div style=&quot;text-align: left;&quot;&gt;&lt;font face=&quot;-apple-system, BlinkMacSystemFont, Segoe UI, Noto Sans, Helvetica, Arial, sans-serif, Apple Color Emoji, Segoe UI Emoji&quot; color=&quot;#f0f6fc&quot;&gt;&lt;span style=&quot;font-size: 16px; background-color: rgb(13, 17, 23);&quot;&gt;&lt;b&gt;Motor driver 2&lt;/b&gt;&lt;/span&gt;&lt;/font&gt;&lt;/div&gt;" style="rounded=0;whiteSpace=wrap;html=1;fontSize=10;align=center;glass=0;shadow=0;strokeWidth=2;perimeterSpacing=0;strokeColor=#4C566A;fillColor=none;fontColor=#C9D1D9;verticalAlign=middle;spacingLeft=0;spacingTop=0;fontFamily=Helvetica;" vertex="1" parent="1">
          <mxGeometry x="350" y="340" width="150" height="40" as="geometry" />
        </mxCell>
        <mxCell id="urWOwsYpe-8lvMp6Ferf-66" value="&lt;div style=&quot;text-align: left;&quot;&gt;&lt;font face=&quot;-apple-system, BlinkMacSystemFont, Segoe UI, Noto Sans, Helvetica, Arial, sans-serif, Apple Color Emoji, Segoe UI Emoji&quot; color=&quot;#f0f6fc&quot;&gt;&lt;span style=&quot;font-size: 16px; background-color: rgb(13, 17, 23);&quot;&gt;&lt;b&gt;Motor driver 3&lt;/b&gt;&lt;/span&gt;&lt;/font&gt;&lt;/div&gt;" style="rounded=0;whiteSpace=wrap;html=1;fontSize=10;align=center;glass=0;shadow=0;strokeWidth=2;perimeterSpacing=0;strokeColor=#4C566A;fillColor=none;fontColor=#C9D1D9;verticalAlign=middle;spacingLeft=0;spacingTop=0;fontFamily=Helvetica;" vertex="1" parent="1">
          <mxGeometry x="350" y="420" width="150" height="40" as="geometry" />
        </mxCell>
        <mxCell id="urWOwsYpe-8lvMp6Ferf-67" value="&lt;div style=&quot;text-align: left;&quot;&gt;&lt;font face=&quot;-apple-system, BlinkMacSystemFont, Segoe UI, Noto Sans, Helvetica, Arial, sans-serif, Apple Color Emoji, Segoe UI Emoji&quot; color=&quot;#f0f6fc&quot;&gt;&lt;span style=&quot;font-size: 16px; background-color: rgb(13, 17, 23);&quot;&gt;&lt;b&gt;Servo 1&lt;/b&gt;&lt;/span&gt;&lt;/font&gt;&lt;/div&gt;" style="rounded=0;whiteSpace=wrap;html=1;fontSize=10;align=center;glass=0;shadow=0;strokeWidth=2;perimeterSpacing=0;strokeColor=#4C566A;fillColor=none;fontColor=#C9D1D9;verticalAlign=middle;spacingLeft=0;spacingTop=0;fontFamily=Helvetica;" vertex="1" parent="1">
          <mxGeometry x="350" y="-100" width="150" height="40" as="geometry" />
        </mxCell>
        <mxCell id="urWOwsYpe-8lvMp6Ferf-68" value="&lt;div style=&quot;text-align: left;&quot;&gt;&lt;font face=&quot;-apple-system, BlinkMacSystemFont, Segoe UI, Noto Sans, Helvetica, Arial, sans-serif, Apple Color Emoji, Segoe UI Emoji&quot; color=&quot;#f0f6fc&quot;&gt;&lt;span style=&quot;font-size: 16px; background-color: rgb(13, 17, 23);&quot;&gt;&lt;b&gt;Servo 2&lt;/b&gt;&lt;/span&gt;&lt;/font&gt;&lt;/div&gt;" style="rounded=0;whiteSpace=wrap;html=1;fontSize=10;align=center;glass=0;shadow=0;strokeWidth=2;perimeterSpacing=0;strokeColor=#4C566A;fillColor=none;fontColor=#C9D1D9;verticalAlign=middle;spacingLeft=0;spacingTop=0;fontFamily=Helvetica;" vertex="1" parent="1">
          <mxGeometry x="350" y="-181" width="150" height="40" as="geometry" />
        </mxCell>
        <mxCell id="urWOwsYpe-8lvMp6Ferf-69" value="&lt;div style=&quot;text-align: left;&quot;&gt;&lt;font face=&quot;-apple-system, BlinkMacSystemFont, Segoe UI, Noto Sans, Helvetica, Arial, sans-serif, Apple Color Emoji, Segoe UI Emoji&quot; color=&quot;#f0f6fc&quot;&gt;&lt;span style=&quot;font-size: 16px; background-color: rgb(13, 17, 23);&quot;&gt;&lt;b&gt;Servo 3&lt;/b&gt;&lt;/span&gt;&lt;/font&gt;&lt;/div&gt;" style="rounded=0;whiteSpace=wrap;html=1;fontSize=10;align=center;glass=0;shadow=0;strokeWidth=2;perimeterSpacing=0;strokeColor=#4C566A;fillColor=none;fontColor=#C9D1D9;verticalAlign=middle;spacingLeft=0;spacingTop=0;fontFamily=Helvetica;" vertex="1" parent="1">
          <mxGeometry x="350" y="-266" width="150" height="40" as="geometry" />
        </mxCell>
        <mxCell id="urWOwsYpe-8lvMp6Ferf-71" value="&lt;div style=&quot;text-align: left;&quot;&gt;&lt;font face=&quot;-apple-system, BlinkMacSystemFont, Segoe UI, Noto Sans, Helvetica, Arial, sans-serif, Apple Color Emoji, Segoe UI Emoji&quot; color=&quot;#f0f6fc&quot;&gt;&lt;span style=&quot;font-size: 16px; background-color: rgb(13, 17, 23);&quot;&gt;&lt;b&gt;Servo 4&lt;/b&gt;&lt;/span&gt;&lt;/font&gt;&lt;/div&gt;" style="rounded=0;whiteSpace=wrap;html=1;fontSize=10;align=center;glass=0;shadow=0;strokeWidth=2;perimeterSpacing=0;strokeColor=#4C566A;fillColor=none;fontColor=#C9D1D9;verticalAlign=middle;spacingLeft=0;spacingTop=0;fontFamily=Helvetica;" vertex="1" parent="1">
          <mxGeometry x="350" y="-349" width="150" height="40" as="geometry" />
        </mxCell>
        <mxCell id="urWOwsYpe-8lvMp6Ferf-75" value="PC5 (SCL)" style="text;html=1;align=center;verticalAlign=middle;whiteSpace=wrap;rounded=0;fontColor=#FFFFFF;fontSize=10;" vertex="1" parent="1">
          <mxGeometry x="3" y="280" width="70" height="20" as="geometry" />
        </mxCell>
        <mxCell id="urWOwsYpe-8lvMp6Ferf-76" value="PC4 (SDA)" style="text;html=1;align=center;verticalAlign=middle;whiteSpace=wrap;rounded=0;fontColor=#FFFFFF;fontSize=10;" vertex="1" parent="1">
          <mxGeometry x="127" y="280" width="70" height="20" as="geometry" />
        </mxCell>
        <mxCell id="urWOwsYpe-8lvMp6Ferf-77" value="I2C" style="text;html=1;align=center;verticalAlign=middle;whiteSpace=wrap;rounded=0;fontColor=#FFFFFF;rotation=0;" vertex="1" parent="1">
          <mxGeometry x="65" y="240" width="70" height="20" as="geometry" />
        </mxCell>
        <mxCell id="urWOwsYpe-8lvMp6Ferf-80" style="edgeStyle=orthogonalEdgeStyle;rounded=0;orthogonalLoop=1;jettySize=auto;html=1;exitX=0.25;exitY=0;exitDx=0;exitDy=0;entryX=0.315;entryY=0.998;entryDx=0;entryDy=0;entryPerimeter=0;strokeColor=#FFFFFF;startArrow=classic;startFill=1;" edge="1" parent="1">
          <mxGeometry relative="1" as="geometry">
            <mxPoint x="72.5" y="300" as="sourcePoint" />
            <mxPoint x="73" y="199.60000000000014" as="targetPoint" />
          </mxGeometry>
        </mxCell>
        <mxCell id="urWOwsYpe-8lvMp6Ferf-81" style="edgeStyle=orthogonalEdgeStyle;rounded=0;orthogonalLoop=1;jettySize=auto;html=1;exitX=0.75;exitY=0;exitDx=0;exitDy=0;entryX=0.686;entryY=1.002;entryDx=0;entryDy=0;entryPerimeter=0;fontColor=none;noLabel=1;strokeColor=#FFFFFF;endArrow=classic;endFill=1;startArrow=classic;startFill=1;" edge="1" parent="1">
          <mxGeometry relative="1" as="geometry">
            <mxPoint x="127.5" y="300" as="sourcePoint" />
            <mxPoint x="127.20000000000027" y="200.4000000000001" as="targetPoint" />
          </mxGeometry>
        </mxCell>
        <mxCell id="urWOwsYpe-8lvMp6Ferf-85" style="edgeStyle=orthogonalEdgeStyle;rounded=0;orthogonalLoop=1;jettySize=auto;html=1;entryX=0.5;entryY=1;entryDx=0;entryDy=0;fontColor=#FFFFFF;startArrow=classic;startFill=1;strokeColor=#FFFFFF;" edge="1" parent="1" source="urWOwsYpe-8lvMp6Ferf-84" target="urWOwsYpe-8lvMp6Ferf-59">
          <mxGeometry relative="1" as="geometry" />
        </mxCell>
        <mxCell id="urWOwsYpe-8lvMp6Ferf-84" value="&lt;div style=&quot;text-align: left;&quot;&gt;&lt;span style=&quot;background-color: transparent; font-size: 16px;&quot;&gt;&lt;font face=&quot;-apple-system, BlinkMacSystemFont, Segoe UI, Noto Sans, Helvetica, Arial, sans-serif, Apple Color Emoji, Segoe UI Emoji&quot; color=&quot;#f0f6fc&quot;&gt;&lt;b&gt;DS18B20&lt;/b&gt;&lt;/font&gt;&lt;/span&gt;&lt;/div&gt;" style="rounded=0;whiteSpace=wrap;html=1;fontSize=10;align=center;glass=0;shadow=0;strokeWidth=2;perimeterSpacing=0;strokeColor=#4C566A;fillColor=none;fontColor=#C9D1D9;verticalAlign=middle;spacingLeft=0;spacingTop=0;fontFamily=Helvetica;" vertex="1" parent="1">
          <mxGeometry x="25" y="530" width="150" height="40" as="geometry" />
        </mxCell>
        <mxCell id="urWOwsYpe-8lvMp6Ferf-86" value="200 pt" style="text;whiteSpace=wrap;" vertex="1" parent="1">
          <mxGeometry x="-1521.147989908854" y="-1048.851806640625" width="61" height="36" as="geometry" />
        </mxCell>
        <mxCell id="urWOwsYpe-8lvMp6Ferf-91" value="&lt;div style=&quot;text-align: left;&quot;&gt;&lt;font face=&quot;-apple-system, BlinkMacSystemFont, Segoe UI, Noto Sans, Helvetica, Arial, sans-serif, Apple Color Emoji, Segoe UI Emoji&quot; color=&quot;#f0f6fc&quot;&gt;&lt;span style=&quot;font-size: 16px; background-color: rgb(13, 17, 23);&quot;&gt;&lt;b&gt;Motor driver 4&lt;/b&gt;&lt;/span&gt;&lt;/font&gt;&lt;/div&gt;" style="rounded=0;whiteSpace=wrap;html=1;fontSize=10;align=center;glass=0;shadow=0;strokeWidth=2;perimeterSpacing=0;strokeColor=#4C566A;fillColor=none;fontColor=#C9D1D9;verticalAlign=middle;spacingLeft=0;spacingTop=0;fontFamily=Helvetica;" vertex="1" parent="1">
          <mxGeometry x="350" y="500" width="150" height="40" as="geometry" />
        </mxCell>
      </root>
    </mxGraphModel>
  </diagram>
</mxfile>
